<svg width="65" height="65" viewBox="0 0 65 65" fill="none" xmlns="http://www.w3.org/2000/svg">
<circle cx="32.5" cy="32.5" r="32.5" fill="black"/>
<path d="M42.1 39.5C43.673 39.5 46 38.46 46 35.6C46 32.74 43.673 31.7 42.1 31.7H39.5V29.1H42.1C44.96 29.1 46 26.773 46 25.2C46 22.34 43.673 21.3 42.1 21.3H39.5V20H38.2V21.3H27.8V20H26.5V21.3H20V23.9H26.5V26.5H23.9C22.327 26.5 20 27.54 20 30.4C20 33.26 22.327 34.3 23.9 34.3H26.5V36.9H23.9C22.327 36.9 20 37.94 20 40.8C20 43.66 22.327 44.7 23.9 44.7H26.5V46H27.8V44.7H38.2V46H39.5V44.7H46V42.1H39.5V39.5H42.1ZM42.1 34.3C42.685 34.3 43.4 34.547 43.4 35.6C43.4 36.653 42.685 36.9 42.1 36.9H39.5V34.3H42.1ZM38.2 31.7H27.8V29.1H38.2V31.7ZM42.1 23.9C42.685 23.9 43.4 24.16 43.4 25.2C43.4 25.785 43.153 26.5 42.1 26.5H39.5V23.9H42.1ZM27.8 23.9H38.2V26.5H27.8V23.9ZM23.9 31.7C23.315 31.7 22.6 31.453 22.6 30.4C22.6 29.347 23.315 29.1 23.9 29.1H26.5V31.7H23.9ZM27.8 34.3H38.2V36.9H27.8V34.3ZM23.9 42.1C23.315 42.1 22.6 41.853 22.6 40.8C22.6 39.747 23.315 39.5 23.9 39.5H26.5V42.1H23.9ZM38.2 42.1H27.8V39.5H38.2V42.1Z" fill="white"/>
</svg>
