<svg width="65" height="65" viewBox="0 0 65 65" fill="none" xmlns="http://www.w3.org/2000/svg">
<circle cx="32.5" cy="32.5" r="32.5" fill="black"/>
<path fill-rule="evenodd" clip-rule="evenodd" d="M39.3656 30.5254C39.7885 31.3418 40 32.2083 40 33.125C40 33.7552 39.9161 34.3639 39.7484 34.9512C39.5807 35.5384 39.3474 36.0863 39.0484 36.5947C38.7495 37.1032 38.3849 37.5651 37.9547 37.9805C37.5245 38.3958 37.0505 38.7539 36.5328 39.0547C36.0151 39.3555 35.4573 39.5882 34.8594 39.7529C34.2615 39.9176 33.6417 40 33 40C32.3583 40 31.7385 39.9176 31.1406 39.7529C30.5427 39.5882 29.9849 39.359 29.4672 39.0654C28.9495 38.7718 28.4792 38.4137 28.0562 37.9912C27.6333 37.5687 27.2688 37.1032 26.9625 36.5947C26.6562 36.0863 26.4193 35.5384 26.2516 34.9512C26.0839 34.3639 26 33.7552 26 33.125C26 32.2155 26.2042 31.3525 26.6125 30.5361L32.9453 18L39.3656 30.5254ZM18 44V42H48V44H18ZM18 46V48H48V46H18Z" fill="white"/>
</svg>
