<svg width="65" height="65" viewBox="0 0 65 65" fill="none" xmlns="http://www.w3.org/2000/svg">
<circle cx="32.5" cy="32.5" r="32.5" fill="black"/>
<path fill-rule="evenodd" clip-rule="evenodd" d="M31.036 22.3747C31.5232 21.644 32.1832 21.045 32.9575 20.6307C33.7319 20.2164 34.5965 19.9998 35.4747 20H35.7587C36.146 20 36.5287 20.0843 36.8801 20.2471C37.2316 20.41 37.5433 20.6474 37.7937 20.943C38.0441 21.2385 38.227 21.5851 38.3299 21.9585C38.4328 22.3319 38.453 22.7233 38.3893 23.1053L37.5733 28H40.7467C41.3385 28 41.9229 28.1312 42.4578 28.3844C42.9927 28.6375 43.4648 29.0061 43.8401 29.4638C44.2153 29.9214 44.4843 30.4566 44.6277 31.0307C44.7711 31.6049 44.7853 32.2037 44.6693 32.784L43.0693 40.784C42.8881 41.6909 42.3982 42.5069 41.683 43.0933C40.9678 43.6796 40.0715 44.0001 39.1467 44H24C22.9391 44 21.9217 43.5786 21.1716 42.8284C20.4214 42.0783 20 41.0609 20 40V29.3333C20 28.9797 20.1405 28.6406 20.3905 28.3905C20.6406 28.1405 20.9797 28 21.3333 28H26.5733C26.7928 28 27.0089 27.9459 27.2024 27.8424C27.3959 27.7389 27.5609 27.5892 27.6827 27.4067L31.036 22.3747ZM25.3333 30.6667H22.6667V40C22.6667 40.3536 22.8071 40.6928 23.0572 40.9428C23.3072 41.1929 23.6464 41.3333 24 41.3333H25.3333V30.6667Z" fill="white"/>
</svg>
