<svg width="65" height="65" viewBox="0 0 65 65" fill="none" xmlns="http://www.w3.org/2000/svg">
<circle cx="32.5" cy="32.5" r="32.5" fill="black"/>
<path fill-rule="evenodd" clip-rule="evenodd" d="M18.0429 46.3262C17.6524 46.7167 17.6524 47.3499 18.0429 47.7404C18.4334 48.1309 19.0666 48.1309 19.4571 47.7404L23.3587 43.8388C23.791 44.4183 24.2516 44.9545 24.6925 45.4676C24.9581 45.7725 25.332 45.9619 25.735 45.9958C26.1379 46.0297 26.5382 45.9053 26.851 45.6491C27.0043 45.5241 27.131 45.3696 27.2236 45.1948C27.3162 45.02 27.3727 44.8284 27.3899 44.6313C27.4071 44.4343 27.3846 44.2358 27.3237 44.0476C27.2629 43.8593 27.1648 43.6853 27.0355 43.5356L27.0341 43.534C26.4862 42.8959 25.9664 42.2904 25.5392 41.6583L29.0645 38.133C28.9376 41.494 30.7709 43.6287 32.3496 45.4671L32.35 45.4676C32.6156 45.7725 32.9895 45.9619 33.3925 45.9958C33.7954 46.0297 34.1957 45.9053 34.5085 45.6491C34.662 45.5243 34.789 45.37 34.8818 45.1953C34.9747 45.0206 35.0315 44.829 35.049 44.632C35.0665 44.4349 35.0442 44.2363 34.9836 44.048C34.923 43.8597 34.8252 43.6854 34.696 43.5356L34.6956 43.5351C32.4844 40.9615 30.7292 38.9186 33.6732 33.5243L40.5383 26.6592C40.5224 27.9989 40.0328 29.6282 38.8195 31.7756C34.627 39.1976 37.612 42.6746 40.012 45.4676C40.2776 45.7725 40.6515 45.9619 41.0545 45.9958C41.4574 46.0297 41.8577 45.9053 42.1705 45.6491C42.324 45.5242 42.4509 45.3698 42.5435 45.195C42.6362 45.0202 42.6929 44.8285 42.7101 44.6314C42.7273 44.4343 42.7047 44.2357 42.6437 44.0475C42.5827 43.8592 42.4845 43.6852 42.355 43.5356L42.3549 43.5354C40.1049 40.915 38.3276 38.845 41.5 33.2276C43.024 30.5291 43.6 28.3526 43.6 26.5421C43.6 25.6071 43.4465 24.7691 43.191 24.0065L47.7414 19.4561C48.1319 19.0656 48.1319 18.4324 47.7414 18.0419C47.3509 17.6514 46.7177 17.6514 46.3272 18.0419L42.2764 22.0927C41.6865 21.1424 40.9759 20.3144 40.3109 19.5396L40.3075 19.5356C40.0421 19.2305 39.6683 19.0408 39.2653 19.0066C38.8624 18.9724 38.462 19.0965 38.149 19.3526C37.9956 19.4776 37.8688 19.6321 37.776 19.8069C37.6833 19.9818 37.6265 20.1734 37.609 20.3705C37.5916 20.5677 37.6137 20.7663 37.6743 20.9547C37.7348 21.1431 37.8325 21.3175 37.9615 21.4676C38.7898 22.4304 39.554 23.3193 40.0316 24.3375L35.6904 28.6787C35.8617 27.9126 35.938 27.203 35.938 26.5421C35.938 23.3696 34.174 21.3131 32.6455 19.5356C32.3806 19.2303 32.007 19.0403 31.6042 19.0061C31.2013 18.972 30.8011 19.0963 30.4885 19.3526C30.3348 19.4775 30.2078 19.6319 30.115 19.8068C30.0221 19.9817 29.9654 20.1735 29.948 20.3707C29.9307 20.568 29.9531 20.7667 30.014 20.9551C30.0749 21.1435 30.173 21.3178 30.3025 21.4676L30.3045 21.4699C32.5535 24.0878 34.3336 26.1597 31.1575 31.7756C30.6046 32.7543 30.1766 33.6645 29.8556 34.5135L24.6296 39.7395C24.2124 38.152 24.5125 36.1797 26.1805 33.2276C27.7045 30.5291 28.2805 28.3526 28.2775 26.5421C28.2775 23.3696 26.5135 21.3131 24.988 19.5356C24.7226 19.2305 24.3488 19.0408 23.9458 19.0066C23.5429 18.9724 23.1425 19.0965 22.8295 19.3526C22.6759 19.4775 22.5489 19.6319 22.4561 19.8068C22.3632 19.9816 22.3064 20.1733 22.2889 20.3705C22.2714 20.5677 22.2936 20.7664 22.3543 20.9548C22.415 21.1432 22.5128 21.3176 22.642 21.4676C24.895 24.0866 26.674 26.1581 23.497 31.7756C20.7902 36.5709 21.0783 39.7194 22.2685 42.1006L18.0429 46.3262Z" fill="white"/>
</svg>
