<svg width="65" height="65" viewBox="0 0 65 65" fill="none" xmlns="http://www.w3.org/2000/svg">
<circle cx="32.5" cy="32.5" r="32.5" fill="black"/>
<path d="M47.6315 41.9244C46.0783 41.4209 43.8924 40.6615 40.7322 39.643C40.0536 35.2031 41.2715 33.3661 36.4157 30.5467C37.0911 32.8347 35.163 35.5935 34.3263 35.4459C33.4912 35.2966 34.9289 29.0279 29.3076 24.9227C30.4084 30.0973 27.9853 31.7522 27.6199 31.0847C26.7753 29.5446 27.2688 24.9735 24.9801 22.5362C23.8017 21.2799 20.9372 20.6911 19.9155 21.2028C18.6802 21.8162 16.8375 25.559 17.0115 27.6223C17.1839 29.6856 24.5878 32.9217 24.5309 33.8828C24.4723 34.8406 21.2125 35.0358 18.1835 33.3596C18.938 35.126 21.2821 38.3637 23.2861 39.3789C27.0141 41.27 35.5695 39.2018 35.8732 39.8644C36.1785 40.5287 31.949 42.7609 30.0304 43.4268C32.9708 44.3371 35.9159 44.3584 39.8274 41.6997C42.3945 42.7019 45.3491 43.2497 46.8517 43.3333C48.0522 43.3727 48.3101 42.1459 47.6315 41.9244Z" fill="white"/>
</svg>
